<svg xmlns="http://www.w3.org/2000/svg" xmlns:xlink="http://www.w3.org/1999/xlink" width="16" height="16">
  <g fill="#474747">
    <path d="M.12 5.4c.1 2.4 0 4.9.91 7.16a4.8 4.8 0 0 0 3.3 2.9c1.75.42 3.65.41 5.3-.34 1.6-.73 2.58-2.4 2.99-4.1.49-1.97.55-4.03.6-6.06-.18-1.16-1.26-1.85-2.2-2.3a12.25 12.25 0 0 0-7.35-.61c-1.3.3-2.78.86-3.37 2.2-.15.36-.2.76-.18 1.15zm11.64.1c-.04.92-.96 1.36-1.69 1.64-2 .66-4.17.69-6.22.24-.87-.24-1.9-.56-2.32-1.48-.3-.87.46-1.62 1.19-1.91 1.63-.68 3.44-.7 5.18-.57 1.19.15 2.47.36 3.42 1.17.25.24.45.56.44.92z" overflow="visible"/>
    <path d="M13.02 5.3c-.42.1-.82.3-1.2.49l.74 1.46a7.62 7.62 0 0 1 1.66-.62c.2.3.06.66.1.98-.03.77-.1 1.54-.27 2.28-.2.25-.5.03-.71-.08-.31-.07-.54-.31-.83-.42-.13 0-.15.16-.22.24l-.7 1.12c.82.5 1.73 1 2.71.93.6-.06 1.14-.51 1.26-1.11.19-.67.28-1.36.36-2.04.07-.82.1-1.67-.15-2.47-.16-.48-.54-.95-1.08-1-.57-.08-1.12.13-1.67.24z" overflow="visible"/>
  </g>
  <path id="steam" fill="#474747" d="M 5.3300781 -0.11914062 C 5.3300781 -0.11914062 5.0026199 0.12503838 4.6757812 0.49414062 C 4.349286 0.86285508 3.9714978 1.368659 3.9707031 2.0273438 C 3.9645975 2.6827751 4.3092807 3.1527986 4.5566406 3.5195312 C 4.8042812 3.8866799 4.9645923 4.1446596 4.9511719 4.4902344 C 4.925019 5.1702101 4.0195312 5.7421875 4.0195312 5.7421875 L 4.5 6.6191406 C 4.5 6.6191406 5.8953717 5.9293212 5.9492188 4.5292969 C 5.9757984 3.8448716 5.6415782 3.3387888 5.3867188 2.9609375 C 5.1318593 2.5830862 4.9676147 2.3285613 4.9707031 2.0351562 L 4.9707031 2.0332031 L 4.9707031 2.0292969 C 4.9707031 1.8089938 5.1706668 1.4421478 5.4238281 1.15625 C 5.6769895 0.87035224 5.9296875 0.6796875 5.9296875 0.6796875 L 5.3300781 -0.11914062 z " overflow="visible" />
  <use width="16" height="16" transform="translate(3.33)" xlink:href="#steam"/>
</svg>

